<svg width="132" height="32" viewBox="0 0 132 32" fill="none" xmlns="http://www.w3.org/2000/svg">
<g filter="url(#filter0_d_57_669)">
<path d="M13.192 22.44H7.176V11.24H5V6.312H7.304C7.944 3.272 10.92 1 16.2 1H17.48V5.288H15.24C13.576 5.288 12.776 5.448 12.808 6.312H17.48V11.24H13.192V22.44Z" fill="white"/>
<path d="M25.1047 4.84H19.0887V1H25.1047V4.84ZM25.1047 22.44H19.0887V6.312H25.1047V22.44Z" fill="white"/>
<path d="M33.3622 22.44H27.3462V6.312H32.9783V11.208H33.2983C33.6503 8.52 35.4103 5.992 39.7303 5.992C44.0823 5.992 46.1302 8.616 46.1302 12.104V22.44H40.1143V14.312C40.1143 12.072 39.2822 11.368 36.6582 11.368C34.0022 11.368 33.3622 12.04 33.3622 14.12V22.44Z" fill="white"/>
<path d="M53.4447 22.76C49.7967 22.76 47.7487 21.096 47.7487 18.344C47.7487 16.072 49.3167 14.44 52.9647 14.088L59.5247 13.448V13.128C59.5247 11.496 58.8208 11.24 56.6768 11.24C54.6928 11.24 54.0848 11.624 54.0848 12.968V13.096H48.0687V13.032C48.0687 8.744 51.6527 5.992 57.1247 5.992C62.7567 5.992 65.4767 8.744 65.4767 13.256V22.44H59.8447V19.048H59.5247C58.9167 21.32 56.9327 22.76 53.4447 22.76ZM53.7967 17.96C53.7967 18.472 54.3087 18.568 55.2367 18.568C58.1487 18.568 59.3327 18.216 59.4927 16.776L54.5648 17.352C54.0208 17.416 53.7967 17.608 53.7967 17.96Z" fill="white"/>
<path d="M73.596 22.44H67.58V6.312H73.212V11.208H73.532C73.884 8.52 75.644 5.992 79.964 5.992C84.316 5.992 86.364 8.616 86.364 12.104V22.44H80.348V14.312C80.348 12.072 79.516 11.368 76.892 11.368C74.236 11.368 73.596 12.04 73.596 14.12V22.44Z" fill="white"/>
<path d="M97.5185 22.76C91.7905 22.76 88.1425 19.592 88.1425 14.376C88.1425 9.128 91.7905 5.992 97.5185 5.992C103.023 5.992 106.542 8.808 106.542 13.128V13.64H100.559V13.384C100.559 11.72 99.3425 11.368 97.3905 11.368C95.1825 11.368 94.1265 11.848 94.1265 14.376C94.1265 16.872 95.1825 17.352 97.3905 17.352C99.3425 17.352 100.559 17.032 100.559 15.368V15.08H106.542V15.624C106.542 19.912 103.023 22.76 97.5185 22.76Z" fill="white"/>
<path d="M117.462 22.76C111.99 22.76 108.15 20.424 108.15 14.376C108.15 9.128 111.958 5.992 117.334 5.992C122.902 5.992 126.454 8.776 126.454 13.96C126.454 14.504 126.422 14.92 126.358 15.496H113.718C113.814 17.448 114.678 17.992 117.238 17.992C119.67 17.992 120.31 17.576 120.31 16.616V16.264H126.326V16.648C126.326 20.232 122.902 22.76 117.462 22.76ZM117.206 10.6C114.998 10.6 114.07 11.08 113.814 12.456H120.63C120.406 11.08 119.446 10.6 117.206 10.6Z" fill="white"/>
<path d="M13.192 22.94H13.692V22.44V11.74H17.48H17.98V11.24V6.312V5.812H17.48H14.3566C14.6027 5.79545 14.895 5.788 15.24 5.788H17.48H17.98V5.288V1V0.5H17.48H16.2C11.0031 0.5 7.78584 2.66574 6.91151 5.812H5H4.5V6.312V11.24V11.74H5H6.676V22.44V22.94H7.176H13.192ZM25.1047 5.34H25.6047V4.84V1V0.5H25.1047H19.0887H18.5887V1V4.84V5.34H19.0887H25.1047ZM25.1047 22.94H25.6047V22.44V6.312V5.812H25.1047H19.0887H18.5887V6.312V22.44V22.94H19.0887H25.1047ZM33.3622 22.94H33.8622V22.44V14.12C33.8622 13.0978 34.0283 12.6145 34.3424 12.3412C34.6821 12.0457 35.3318 11.868 36.6582 11.868C37.9601 11.868 38.6585 12.0509 39.0463 12.3808C39.4082 12.6888 39.6143 13.2298 39.6143 14.312V22.44V22.94H40.1143H46.1302H46.6302V22.44V12.104C46.6302 10.2644 46.0891 8.5996 44.9217 7.39242C43.7508 6.18158 42.0087 5.492 39.7303 5.492C37.4682 5.492 35.8167 6.15671 34.6828 7.22865C34.1714 7.71209 33.7756 8.26856 33.4783 8.86546V6.312V5.812H32.9783H27.3462H26.8462V6.312V22.44V22.94H27.3462H33.3622ZM59.3447 20.6878V22.44V22.94H59.8447H65.4767H65.9767V22.44V13.256C65.9767 10.8979 65.2629 8.93142 63.7482 7.56121C62.2413 6.19808 60.0155 5.492 57.1247 5.492C54.3106 5.492 51.9289 6.19922 50.2385 7.50873C48.5359 8.8277 47.5687 10.7338 47.5687 13.032V13.096V13.596H48.0687H52.859C51.0055 13.7826 49.6062 14.2981 48.661 15.1184C47.6903 15.9609 47.2487 17.0816 47.2487 18.344C47.2487 19.8563 47.8184 21.1124 48.92 21.9773C50.0054 22.8294 51.5528 23.26 53.4447 23.26C55.254 23.26 56.7234 22.8869 57.8339 22.1773C58.4626 21.7757 58.9655 21.2729 59.3447 20.6878ZM59.0229 12.9946L54.5848 13.4276V13.096V12.968C54.5848 12.3624 54.72 12.1441 54.9122 12.0173C55.1736 11.8448 55.6791 11.74 56.6768 11.74C57.2072 11.74 57.6261 11.7561 57.9595 11.801C58.295 11.8462 58.5075 11.9163 58.6464 12.0001C58.8473 12.1214 59.0045 12.3386 59.0229 12.9946ZM73.596 22.94H74.096V22.44V14.12C74.096 13.0978 74.262 12.6145 74.5762 12.3412C74.9159 12.0457 75.5656 11.868 76.892 11.868C78.1939 11.868 78.8922 12.0509 79.28 12.3808C79.642 12.6888 79.848 13.2298 79.848 14.312V22.44V22.94H80.348H86.364H86.864V22.44V12.104C86.864 10.2644 86.3228 8.5996 85.1554 7.39242C83.9845 6.18158 82.2425 5.492 79.964 5.492C77.7019 5.492 76.0505 6.15671 74.9165 7.22865C74.4051 7.71209 74.0093 8.26856 73.712 8.86546V6.312V5.812H73.212H67.58H67.08V6.312V22.44V22.94H67.58H73.596ZM106.542 14.14H107.042V13.64V13.128C107.042 10.8189 106.096 8.8893 104.405 7.5483C102.726 6.21623 100.351 5.492 97.5185 5.492C94.5668 5.492 92.0935 6.30046 90.3512 7.84148C88.6015 9.3892 87.6425 11.6293 87.6425 14.376C87.6425 17.1074 88.6019 19.3469 90.3507 20.8981C92.0924 22.4429 94.5656 23.26 97.5185 23.26C100.352 23.26 102.727 22.5271 104.406 21.1912C106.095 19.8469 107.042 17.9179 107.042 15.624V15.08V14.58H106.542H100.559H100.059V15.08V15.368C100.059 15.7245 99.9933 15.9683 99.8994 16.1399C99.8082 16.3066 99.6726 16.437 99.4739 16.5414C99.0456 16.7665 98.3667 16.852 97.3905 16.852C96.2866 16.852 95.6342 16.7227 95.2428 16.4096C94.8832 16.1218 94.6265 15.5744 94.6265 14.376C94.6265 13.1598 94.884 12.6041 95.2446 12.313C95.6354 11.9975 96.2863 11.868 97.3905 11.868C98.3628 11.868 99.0412 11.9609 99.4689 12.1919C99.6682 12.2996 99.8056 12.4338 99.8983 12.605C99.9934 12.7808 100.059 13.0277 100.059 13.384V13.64V14.14H100.559H106.542ZM126.826 15.8118L126.855 15.5512C126.92 14.9642 126.954 14.5286 126.954 13.96C126.954 11.2458 126.019 9.10459 124.305 7.65075C122.604 6.20694 120.195 5.492 117.334 5.492C114.551 5.492 112.128 6.30417 110.394 7.84189C108.653 9.38573 107.65 11.623 107.65 14.376C107.65 17.5125 108.651 19.767 110.438 21.2236C112.206 22.6649 114.666 23.26 117.462 23.26C120.253 23.26 122.579 22.6123 124.222 21.457C125.877 20.2932 126.826 18.6191 126.826 16.648V16.264V15.8118ZM114.27 15.996H119.81V16.264V16.616C119.81 16.8031 119.778 16.9158 119.736 16.9906C119.698 17.0595 119.627 17.1373 119.469 17.2137C119.117 17.3833 118.454 17.492 117.238 17.492C115.959 17.492 115.247 17.3483 114.839 17.0651C114.557 16.8698 114.362 16.563 114.27 15.996ZM55.2367 18.068C54.766 18.068 54.4894 18.0401 54.3384 17.9857C54.3194 17.9788 54.306 17.9728 54.2969 17.968C54.2968 17.9656 54.2967 17.9629 54.2967 17.96C54.2967 17.9473 54.2975 17.9381 54.2983 17.9318C54.3256 17.9145 54.4121 17.8734 54.623 17.8486C54.623 17.8486 54.6231 17.8486 54.6232 17.8486L58.7694 17.364C58.6582 17.5089 58.4881 17.6386 58.2134 17.7468C57.6323 17.9758 56.6976 18.068 55.2367 18.068ZM114.502 11.956C114.625 11.73 114.794 11.5718 115.016 11.4518C115.441 11.2221 116.118 11.1 117.206 11.1C118.311 11.1 119.005 11.2223 119.439 11.4533C119.665 11.5738 119.835 11.7316 119.955 11.956H114.502Z" stroke="black"/>
</g>
<defs>
<filter id="filter0_d_57_669" x="0" y="0" width="131.454" height="31.76" filterUnits="userSpaceOnUse" color-interpolation-filters="sRGB">
<feFlood flood-opacity="0" result="BackgroundImageFix"/>
<feColorMatrix in="SourceAlpha" type="matrix" values="0 0 0 0 0 0 0 0 0 0 0 0 0 0 0 0 0 0 127 0" result="hardAlpha"/>
<feOffset dy="4"/>
<feGaussianBlur stdDeviation="2"/>
<feComposite in2="hardAlpha" operator="out"/>
<feColorMatrix type="matrix" values="0 0 0 0 0 0 0 0 0 0 0 0 0 0 0 0 0 0 0.25 0"/>
<feBlend mode="normal" in2="BackgroundImageFix" result="effect1_dropShadow_57_669"/>
<feBlend mode="normal" in="SourceGraphic" in2="effect1_dropShadow_57_669" result="shape"/>
</filter>
</defs>
</svg>
